<svg width="38" height="64" viewBox="0 0 38 64" fill="none" xmlns="http://www.w3.org/2000/svg">
<path d="M19 12.8021C19.8319 12.8019 20.6556 12.6361 21.424 12.3142C22.1925 11.9924 22.8907 11.5207 23.4787 10.9261C24.0668 10.3316 24.5332 9.62583 24.8514 8.84914C25.1695 8.07245 25.3331 7.24004 25.3329 6.39945C25.3327 5.55885 25.1687 4.72652 24.8501 3.94999C24.5316 3.17346 24.0648 2.46794 23.4765 1.87369C22.8881 1.27945 22.1897 0.808127 21.4211 0.486639C20.6525 0.16515 19.8287 -0.000209909 18.9969 1.99975e-07C17.3168 0.000424535 15.7058 0.675225 14.5182 1.87595C13.3305 3.07668 12.6635 4.70498 12.6639 6.40265C12.6644 8.10031 13.3321 9.72827 14.5204 10.9284C15.7086 12.1285 17.32 12.8025 19 12.8021ZM37.9291 37.0656C36.71 31.3861 34.579 22.0653 31.4632 18.2064C28.4329 14.4532 22.328 14.2964 19 14.2964C15.6721 14.2964 9.56715 14.4532 6.53685 18.2064C3.42105 22.0653 1.29002 31.3861 0.0709388 37.0656C-0.603517 40.2109 3.72503 41.366 4.85546 38.2015C6.53685 33.4883 7.83509 29.5302 10.6786 26.2473C12.1731 35.5489 6.65717 51.7363 6.33419 60.7979C6.33365 61.5459 6.59246 62.2705 7.06563 62.8457C7.53881 63.4209 8.19646 63.8104 8.9243 63.9465C9.65215 64.0827 10.4042 63.9569 11.0498 63.5909C11.6954 63.225 12.1937 62.6421 12.4581 61.9434C13.9052 56.8655 19 42.7355 19 42.7355C19 42.7355 24.0949 56.8655 25.5419 61.9434C25.8064 62.6421 26.3047 63.225 26.9503 63.5909C27.5958 63.9569 28.3479 64.0827 29.0757 63.9465C29.8036 63.8104 30.4612 63.4209 30.9344 62.8457C31.4076 62.2705 31.6664 61.5459 31.6659 60.7979C31.3429 51.7363 25.8269 35.5489 27.3215 26.2505C30.165 29.5334 31.4632 33.4915 33.1446 38.2047C34.2719 41.366 38.6036 40.2109 37.9291 37.0656Z" fill="black"/>
</svg>
