<svg width="17" height="21" viewBox="0 0 17 21" fill="none" xmlns="http://www.w3.org/2000/svg">
<path d="M15.3124 9.1875H13.9791V5.25C13.9791 2.3625 11.5791 0 8.64575 0C5.71242 0 3.31242 2.3625 3.31242 5.25V9.1875H1.97909C1.31242 9.1875 0.645752 9.84375 0.645752 10.5V19.6875C0.645752 20.3438 1.31242 21 1.97909 21H15.3124C15.9791 21 16.6458 20.3438 16.6458 19.6875V10.5C16.6458 9.84375 15.9791 9.1875 15.3124 9.1875ZM9.97909 18.375H7.31242L7.84575 15.4875C7.17908 15.225 6.64575 14.4375 6.64575 13.7812C6.64575 12.7312 7.57909 11.8125 8.64575 11.8125C9.71242 11.8125 10.6458 12.7312 10.6458 13.7812C10.6458 14.5688 10.2458 15.225 9.44575 15.4875L9.97909 18.375ZM11.3124 9.1875H5.97909V5.25C5.97909 3.80625 7.17909 2.625 8.64575 2.625C10.1124 2.625 11.3124 3.80625 11.3124 5.25V9.1875Z" fill="black"/>
</svg>
